<?xml version="1.0" encoding="utf-8"?>
<!-- Generator: Adobe Illustrator 22.0.1, SVG Export Plug-In . SVG Version: 6.00 Build 0)  -->
<svg version="1.1" id="Слой_1" xmlns="http://www.w3.org/2000/svg" xmlns:xlink="http://www.w3.org/1999/xlink" x="0px" y="0px"
	 viewBox="0 0 350.4 165.8" style="enable-background:new 0 0 350.4 165.8;" xml:space="preserve">
<style type="text/css">
	.st0{clip-path:url(#SVGID_2_);}
	.st1{clip-path:url(#SVGID_4_);fill:#404A5E;}
	.st2{clip-path:url(#SVGID_6_);}
	.st3{clip-path:url(#SVGID_8_);fill:#FFFFFF;}
	.st4{clip-path:url(#SVGID_10_);}
	.st5{clip-path:url(#SVGID_12_);fill:#404A5E;}
	.st6{clip-path:url(#SVGID_14_);}
	.st7{clip-path:url(#SVGID_16_);fill:#FFFFFF;}
</style>
<g id="White_Logo_1_">
	<g>
		<defs>
			<rect id="SVGID_13_" y="0" width="350.4" height="167.3"/>
		</defs>
		<clipPath id="SVGID_2_">
			<use xlink:href="#SVGID_13_"  style="overflow:visible;"/>
		</clipPath>
		<g class="st0">
			<defs>
				<rect id="SVGID_15_" y="0" width="350.4" height="167.3"/>
			</defs>
			<clipPath id="SVGID_4_">
				<use xlink:href="#SVGID_15_"  style="overflow:visible;"/>
			</clipPath>
			<path style="clip-path:url(#SVGID_4_);fill:#FFFFFF;" d="M267.1,23.5c0,0-165.4,72.6-106.4,72.6
				C252.7,96.1,265.3,41.5,267.1,23.5"/>
			<path style="clip-path:url(#SVGID_4_);fill:#FFFFFF;" d="M138.9,109.1C67.7,89.7,289.2,0,289.2,0S62.8,46.8,0,167.3
				c0,0,249.7-74.3,308.7-7.8l22.6-38.2C304,104.7,148.3,113.5,138.9,109.1"/>
			<path style="clip-path:url(#SVGID_4_);fill:#FFFFFF;" d="M350.4,88c0,0-97.1-1.3-163.3,17.5c0,0,120.8-5.1,147,10.2L350.4,88"/>
		</g>
	</g>
</g>
</svg>
