<?xml version="1.0" encoding="utf-8"?>
<!-- Generator: Adobe Illustrator 22.0.1, SVG Export Plug-In . SVG Version: 6.00 Build 0)  -->
<svg version="1.1" id="Слой_1" xmlns="http://www.w3.org/2000/svg" xmlns:xlink="http://www.w3.org/1999/xlink" x="0px" y="0px"
	 viewBox="0 0 350.4 165.8" style="enable-background:new 0 0 350.4 165.8;" xml:space="preserve">
<style type="text/css">
	.st0{clip-path:url(#SVGID_2_);}
	.st1{clip-path:url(#SVGID_4_);fill:#404A5E;}
	.st2{clip-path:url(#SVGID_6_);}
	.st3{clip-path:url(#SVGID_8_);fill:#FFFFFF;}
	.st4{clip-path:url(#SVGID_10_);}
	.st5{clip-path:url(#SVGID_12_);fill:#404A5E;}
	.st6{clip-path:url(#SVGID_14_);}
	.st7{clip-path:url(#SVGID_16_);fill:#FFFFFF;}
</style>
<g id="Dark_logo_2_">
	<g>
		<defs>
			<rect id="SVGID_9_" x="0.4" width="347.3" height="165.8"/>
		</defs>
		<clipPath id="SVGID_2_">
			<use xlink:href="#SVGID_9_"  style="overflow:visible;"/>
		</clipPath>
		<g class="st0">
			<defs>
				<rect id="SVGID_11_" x="0.4" width="347.3" height="165.8"/>
			</defs>
			<clipPath id="SVGID_4_">
				<use xlink:href="#SVGID_11_"  style="overflow:visible;"/>
			</clipPath>
			<path class="st1" d="M265.2,23.3c0,0-163.9,72-105.5,72C250.9,95.2,263.4,41.1,265.2,23.3"/>
			<path class="st1" d="M138.1,108.2C67.6,88.9,287.1,0,287.1,0S62.7,46.4,0.4,165.8c0,0,247.6-73.7,306-7.7l22.4-37.8
				C301.8,103.8,147.4,112.5,138.1,108.2"/>
			<path class="st1" d="M347.8,87.2c0,0-96.2-1.3-161.8,17.4c0,0,119.8-5.1,145.7,10.1L347.8,87.2"/>
		</g>
	</g>
</g>
</svg>
