<?xml version="1.0" encoding="utf-8"?>
<!-- Generator: Adobe Illustrator 22.0.1, SVG Export Plug-In . SVG Version: 6.00 Build 0)  -->
<svg version="1.1" id="Слой_1" xmlns="http://www.w3.org/2000/svg" xmlns:xlink="http://www.w3.org/1999/xlink" x="0px" y="0px"
	 viewBox="0 0 823.9 168.6" style="enable-background:new 0 0 823.9 168.6;" xml:space="preserve">
<style type="text/css">
	.st0{clip-path:url(#SVGID_2_);}
	.st1{clip-path:url(#SVGID_19_);}
	.st2{clip-path:url(#SVGID_20_);}
	.st3{clip-path:url(#SVGID_21_);}
	.st4{clip-path:url(#SVGID_22_);}
	.st5{clip-path:url(#SVGID_23_);}
	.st6{clip-path:url(#SVGID_24_);}
	.st7{clip-path:url(#SVGID_25_);}
	.st8{clip-path:url(#SVGID_26_);}
	.st9{clip-path:url(#SVGID_27_);}
	.st10{clip-path:url(#SVGID_28_);}
	.st11{clip-path:url(#SVGID_29_);}
	.st12{clip-path:url(#SVGID_30_);}
	.st13{clip-path:url(#SVGID_31_);}
	.st14{clip-path:url(#SVGID_32_);}
	.st15{clip-path:url(#SVGID_33_);}
	.st16{clip-path:url(#SVGID_34_);fill:#404A5E;}
</style>
<g>
	<g>
		<g id="Dark_Logo_2_">
			<defs>
				<rect id="SVGID_1_" x="2.4" y="0.3" width="821.3" height="167.6"/>
			</defs>
			<clipPath id="SVGID_2_">
				<use xlink:href="#SVGID_1_"  style="overflow:visible;"/>
			</clipPath>
			<g class="st0">
				<g>
					<defs>
						<rect id="SVGID_3_" x="2.4" y="0.3" width="821.3" height="167.6"/>
					</defs>
					<defs>
						<rect id="SVGID_4_" x="2.4" y="0.3" width="821.3" height="167.6"/>
					</defs>
					<defs>
						<rect id="SVGID_5_" x="2.4" y="0.3" width="821.3" height="167.6"/>
					</defs>
					<defs>
						<rect id="SVGID_6_" x="2.4" y="0.3" width="821.3" height="167.6"/>
					</defs>
					<defs>
						<rect id="SVGID_7_" x="2.4" y="0.3" width="821.3" height="167.6"/>
					</defs>
					<defs>
						<rect id="SVGID_8_" x="2.4" y="0.3" width="821.3" height="167.6"/>
					</defs>
					<defs>
						<rect id="SVGID_9_" x="2.4" y="0.3" width="821.3" height="167.6"/>
					</defs>
					<defs>
						<rect id="SVGID_10_" x="2.4" y="0.3" width="821.3" height="167.6"/>
					</defs>
					<defs>
						<rect id="SVGID_11_" x="2.4" y="0.3" width="821.3" height="167.6"/>
					</defs>
					<defs>
						<rect id="SVGID_12_" x="2.4" y="0.3" width="821.3" height="167.6"/>
					</defs>
					<defs>
						<rect id="SVGID_13_" x="2.4" y="0.3" width="821.3" height="167.6"/>
					</defs>
					<defs>
						<rect id="SVGID_14_" x="2.4" y="0.3" width="821.3" height="167.6"/>
					</defs>
					<defs>
						<rect id="SVGID_15_" x="2.4" y="0.3" width="821.3" height="167.6"/>
					</defs>
					<defs>
						<rect id="SVGID_16_" x="2.4" y="0.3" width="821.3" height="167.6"/>
					</defs>
					<defs>
						<rect id="SVGID_17_" x="2.4" y="0.3" width="821.3" height="167.6"/>
					</defs>
					<defs>
						<rect id="SVGID_18_" x="2.4" y="0.3" width="821.3" height="167.6"/>
					</defs>
					<clipPath id="SVGID_19_">
						<use xlink:href="#SVGID_3_"  style="overflow:visible;"/>
					</clipPath>
					<clipPath id="SVGID_20_" class="st1">
						<use xlink:href="#SVGID_4_"  style="overflow:visible;"/>
					</clipPath>
					<clipPath id="SVGID_21_" class="st2">
						<use xlink:href="#SVGID_5_"  style="overflow:visible;"/>
					</clipPath>
					<clipPath id="SVGID_22_" class="st3">
						<use xlink:href="#SVGID_6_"  style="overflow:visible;"/>
					</clipPath>
					<clipPath id="SVGID_23_" class="st4">
						<use xlink:href="#SVGID_7_"  style="overflow:visible;"/>
					</clipPath>
					<clipPath id="SVGID_24_" class="st5">
						<use xlink:href="#SVGID_8_"  style="overflow:visible;"/>
					</clipPath>
					<clipPath id="SVGID_25_" class="st6">
						<use xlink:href="#SVGID_9_"  style="overflow:visible;"/>
					</clipPath>
					<clipPath id="SVGID_26_" class="st7">
						<use xlink:href="#SVGID_10_"  style="overflow:visible;"/>
					</clipPath>
					<clipPath id="SVGID_27_" class="st8">
						<use xlink:href="#SVGID_11_"  style="overflow:visible;"/>
					</clipPath>
					<clipPath id="SVGID_28_" class="st9">
						<use xlink:href="#SVGID_12_"  style="overflow:visible;"/>
					</clipPath>
					<clipPath id="SVGID_29_" class="st10">
						<use xlink:href="#SVGID_13_"  style="overflow:visible;"/>
					</clipPath>
					<clipPath id="SVGID_30_" class="st11">
						<use xlink:href="#SVGID_14_"  style="overflow:visible;"/>
					</clipPath>
					<clipPath id="SVGID_31_" class="st12">
						<use xlink:href="#SVGID_15_"  style="overflow:visible;"/>
					</clipPath>
					<clipPath id="SVGID_32_" class="st13">
						<use xlink:href="#SVGID_16_"  style="overflow:visible;"/>
					</clipPath>
					<clipPath id="SVGID_33_" class="st14">
						<use xlink:href="#SVGID_17_"  style="overflow:visible;"/>
					</clipPath>
					<clipPath id="SVGID_34_" class="st15">
						<use xlink:href="#SVGID_18_"  style="overflow:visible;"/>
					</clipPath>
					<path class="st16" d="M598.5,53.8l2.3-13.4h27.7l-6.1,34.2h-12.8l0.2-6.1c-5.4,5.1-12,7.6-19.8,7.6c-7.9,0-14-2.3-18.5-6.8
						c-4.4-4.5-6.6-10.4-6.6-17.6l0.1-3.9l0.6-3.4c1.7-9.7,5.9-17.7,12.4-23.9c3.4-3.2,7.2-5.6,11.5-7.2s9-2.5,14.2-2.5
						c2.8,0,5.2,0.2,7.2,0.6c2,0.4,4.1,1.1,6.3,2.1c3.8,1.7,6.7,4.3,8.7,7.7c2.1,3.4,3.1,7.5,3.1,12.2v0.3h-19.2
						c-0.6-5.2-3.7-7.8-9.1-7.8c-8.9,0-14.1,7.8-15.5,23.5c0,7.6,3.5,11.4,10.6,11.4c2.2,0,4.4-0.7,6.8-2c2.4-1.3,4-3.1,4.8-5.2
						h-8.9"/>
					<polygon class="st16" points="504.4,12.7 523.5,12.7 539.5,46.3 541.2,32.6 544.7,12.7 564,12.7 553.1,74.4 534.2,74.4 
						518.1,40.8 516.5,54.8 512.9,74.4 493.5,74.4 					"/>
					<polygon class="st16" points="472,12.7 492.3,12.7 481.4,74.4 461.1,74.4 					"/>
					<polygon class="st16" points="398.8,12.7 421.6,12.7 428.5,33.6 442.8,12.7 465,12.7 435.3,51.7 431.3,74.4 411,74.4 414.8,52 
											"/>
					<polygon class="st16" points="363.7,12.7 383.9,12.7 375.6,60 403.4,60 400.9,74.4 352.8,74.4 					"/>
					<polygon class="st16" points="306.4,12.7 354.5,12.7 351.9,27.2 324.2,27.2 322.2,38.2 344.3,38.2 341.7,52.6 319.6,52.6 
						315.9,74.4 295.5,74.4 					"/>
					<path class="st16" d="M368,131.3h12.7l-2.5-22.2L368,131.3z M371.3,90.6h20.6l11.2,61.7H383l-1-8.2h-20.2l-3.7,8.2h-19.7
						L371.3,90.6"/>
					<path class="st16" d="M455.5,114.2c0-2.2-0.2-3.8-0.6-5s-1.1-2.2-2.1-3c-2.2-1.4-4.4-2.1-6.6-2.1c-3.8,0-7,1.7-9.5,5.1
						s-4.2,7.7-5.1,12.8l-0.7,6.3c0,7.1,3.3,10.7,9.8,10.7c5.8,0,9.9-3.5,12.3-10.6h19.5c-1.4,4.9-3.6,9.3-6.7,13.2s-7.1,7-11.9,9.3
						c-2.1,1-4.5,1.8-7.2,2.4c-1.2,0.2-2.5,0.4-3.9,0.6c-1.4,0.2-2.8,0.3-4.2,0.3c-8.7,0-15.6-2.2-20.5-6.5
						c-2.3-2.1-4.2-4.7-5.6-7.9c-1.3-3.3-1.9-6.7-1.9-10.5l0.1-3.8l0.6-3.5c1.3-7.5,3.9-13.7,7.8-18.6s8.4-8.6,13.6-10.9
						c5.2-2.4,10.3-3.5,15.4-3.5c3.6,0,6.8,0.3,9.5,0.9s5.3,1.7,7.5,3.2c3.9,2.5,6.5,5.6,7.7,9.2c0.6,1.8,1,3.7,1.3,5.6l0.3,6.4
						L455.5,114.2"/>
					<path class="st16" d="M501.2,131.3h12.7l-2.5-22.2L501.2,131.3z M504.4,90.6H525l11.2,61.7h-20.1l-1-8.2h-20.2l-3.7,8.2h-19.7
						L504.4,90.6"/>
					<path class="st16" d="M571.3,105.1l-5.8,32.8h4.5c9.6,0,15.4-5.7,17.4-17.1c0.3-2.2,0.5-4.2,0.5-5.9c0-3.5-1-6-3-7.5
						s-5.4-2.3-10.1-2.3H571.3z M553.6,90.6h26.6c2.9,0,5.6,0.2,8.1,0.6s4.8,0.9,6.8,1.7c4.1,1.4,7.4,3.7,9.8,7.2
						c2.4,3.4,3.6,7.6,3.6,12.7l-0.3,4.1l-0.4,3.3c-1.4,7.5-3.9,13.8-7.5,18.8c-3.3,4.7-7.7,8.1-13.2,10.3s-11.5,3.3-18,3.3h-26.5
						L553.6,90.6"/>
					<polygon class="st16" points="621.1,90.6 671.5,90.6 668.8,105.1 638.8,105.1 637.2,113.9 662.7,113.9 660.1,128.3 
						634.6,128.3 633,137.9 664.3,137.9 661.8,152.3 610.2,152.3 					"/>
					<path class="st16" d="M706.3,90.6l4,38.5L728,90.6h24.4l-10.9,61.7h-18.3l3.8-20.6l1.5-7.9l3.1-11.2l-18.4,39.7h-14l-4.4-39.7
						l-0.9,8.7c-0.7,7.4-2.4,17.7-5.1,30.9h-18l10.9-61.7h24.6"/>
					<polygon class="st16" points="757.5,90.6 780.3,90.6 787.1,111.5 801.5,90.6 823.7,90.6 794,129.5 790,152.3 769.7,152.3 
						773.5,129.9 					"/>
					<path class="st16" d="M270.1,23.8c0,0-165.7,72.7-106.6,72.7C255.6,96.6,268.2,41.9,270.1,23.8"/>
					<path class="st16" d="M353.5,88.5c0,0-97.3-1.3-163.6,17.6c0,0,121.1-5.2,147.3,10.2L353.5,88.5"/>
					<path class="st16" d="M141.6,109.7C70.3,90.2,292.2,0.3,292.2,0.3S65.4,47.2,2.4,167.9c0,0,250.2-74.5,309.3-7.8l22.6-38.3
						C307.1,105.2,151,114,141.6,109.7"/>
				</g>
			</g>
		</g>
	</g>
</g>
</svg>
