<?xml version="1.0" encoding="utf-8"?>
<!-- Generator: Adobe Illustrator 22.0.1, SVG Export Plug-In . SVG Version: 6.00 Build 0)  -->
<svg version="1.1" id="Capa_1" xmlns="http://www.w3.org/2000/svg" xmlns:xlink="http://www.w3.org/1999/xlink" x="0px" y="0px"
	 viewBox="0 0 512 512" style="enable-background:new 0 0 512 512;" xml:space="preserve">
<style type="text/css">
	.st0{fill:#878787;}
</style>
<g>
	<g>
		<g>
			<path class="st0" d="M500.5,404.6l-79.1-79.1c-15.7-15.7-41.8-15.2-58.1,1.1l-39.8,39.8c-2.5-1.4-5.1-2.8-7.9-4.4
				c-25.2-13.9-59.6-33-95.8-69.3c-36.3-36.3-55.5-70.8-69.4-96c-1.5-2.7-2.9-5.2-4.3-7.7l26.7-26.7l13.1-13.2
				c16.3-16.3,16.8-42.4,1.1-58.1L108,12.1C92.2-3.7,66.1-3.2,49.8,13.1L27.5,35.6l0.6,0.6c-7.5,9.5-13.7,20.5-18.4,32.4
				c-4.3,11.3-7,22.1-8.2,32.9c-10.4,86.6,29.1,165.7,136.5,273C286.5,522.8,406,511.6,411.2,511c11.2-1.3,22-4,32.9-8.3
				c11.8-4.6,22.7-10.8,32.3-18.3l0.5,0.4l22.6-22.1C515.8,446.5,516.2,420.4,500.5,404.6z"/>
		</g>
	</g>
</g>
</svg>
