<?xml version="1.0" encoding="utf-8"?>
<!-- Generator: Adobe Illustrator 19.0.0, SVG Export Plug-In . SVG Version: 6.00 Build 0)  -->
<svg version="1.1" id="Layer_1" xmlns="http://www.w3.org/2000/svg" xmlns:xlink="http://www.w3.org/1999/xlink" x="0px" y="0px"
	 viewBox="0 0 96 96" style="enable-background:new 0 0 96 96;" xml:space="preserve">
<style type="text/css">
	.st0{fill:#333333;}
</style>
<g id="XMLID_1_">
	<polygon id="XMLID_3_" class="st0" points="46.3,43.5 36.9,53.5 45.4,48.8 49.8,53.5 59.2,43.5 50.8,48.2 	"/>
	<path id="XMLID_6_" class="st0" d="M48,20.5c-15.2,0-27.5,12.3-27.5,27.5c0,15.2,12.3,27.5,27.5,27.5c15.2,0,27.5-12.3,27.5-27.5
		C75.5,32.8,63.2,20.5,48,20.5z M48.1,64c-1.7,0-3.4-0.2-4.9-0.7l-5.9,3.2v-6.1c-3.9-2.9-6.4-7.4-6.4-12.5c0-8.8,7.7-16,17.2-16
		c9.5,0,17.2,7.2,17.2,16C65.3,56.8,57.6,64,48.1,64z"/>
</g>
</svg>
