<svg version="1.1" id="Layer_1" xmlns="http://www.w3.org/2000/svg" xmlns:xlink="http://www.w3.org/1999/xlink" x="0px" y="0px" viewBox="0 0 48 48" style="enable-background:new 0 0 48 48;" xml:space="preserve" width="48" height="48">
<rect x="2" y="9" style="fill:#ECEFF1;" width="44" height="30"/>
<rect x="2" y="9" style="fill:#33691E;" width="22" height="30"/>
<path style="fill:#D21034;" d="M30.733,20.001c-2.209-3.826-7.101-5.136-10.926-2.928s-5.136,7.101-2.928,10.926&#10;&#9;s7.101,5.136,10.926,2.928c1.216-0.702,2.226-1.712,2.928-2.928c-2.209,2.759-6.236,3.205-8.994,0.996s-3.205-6.236-0.996-8.994&#10;&#9;s6.236-3.205,8.994-0.996C30.105,19.299,30.439,19.633,30.733,20.001 M31.199,24.214L24,21.868L28.479,28v-7.572L24,26.56&#10;&#9;L31.199,24.214z"/>
</svg>