<svg version="1.1" xmlns="http://www.w3.org/2000/svg" xmlns:xlink="http://www.w3.org/1999/xlink" x="0px" y="0px" viewBox="0 0 48 48" style="enable-background:new 0 0 48 48;" xml:space="preserve" width="48" height="48">
<rect x="2" y="9" style="fill:#64B5F6;" width="44" height="30"/>
<rect x="2" y="19" style="fill:#F5F5F5;" width="44" height="10"/>
<path style="fill:#FFC107;stroke:#BF360C;stroke-width:0.0608;" d="M23.827,24.072l1.557,3.392&#10;&#9;c0,0,0.027,0.065,0.07,0.047c0.043-0.018,0.016-0.083,0.016-0.083l-1.298-3.5 M24.136,25.248c-0.019,0.516,0.298,0.8,0.257,1.26&#10;&#9;c-0.041,0.461,0.212,0.721,0.27,0.9c0.059,0.179-0.063,0.286-0.011,0.312c0.053,0.026,0.168-0.116,0.13-0.371&#10;&#9;c-0.038-0.255-0.231-0.33-0.186-0.893c0.045-0.563-0.23-0.694-0.163-1.207"/>
<path style="fill:#FFC107;stroke:#BF360C;stroke-width:0.0608;" d="M23.813,24l0.14,3.73c0,0,0,0.07,0.047,0.07&#10;&#9;c0.047,0,0.047-0.07,0.047-0.07l0.14-3.73 M23.648,25.205c-0.215,0.469-0.03,0.853-0.245,1.263c-0.215,0.41-0.081,0.747-0.095,0.935&#10;&#9;c-0.014,0.188-0.168,0.24-0.129,0.284c0.039,0.044,0.2-0.043,0.262-0.293c0.063-0.25-0.087-0.394,0.17-0.896&#10;&#9;c0.257-0.502,0.053-0.729,0.311-1.178"/>
<path style="fill:#FFC107;stroke:#BF360C;stroke-width:0.0608;" d="M23.827,23.928l-1.298,3.5&#10;&#9;c0,0-0.027,0.065,0.016,0.083c0.043,0.018,0.07-0.047,0.07-0.047l1.557-3.392 M23.213,24.979c-0.378,0.351-0.354,0.776-0.71,1.073&#10;&#9;c-0.355,0.297-0.36,0.66-0.445,0.828c-0.085,0.168-0.247,0.158-0.228,0.213c0.019,0.055,0.201,0.037,0.354-0.17&#10;&#9;c0.154-0.207,0.07-0.397,0.5-0.763c0.43-0.366,0.328-0.653,0.738-0.969"/>
<path style="fill:#FFC107;stroke:#BF360C;stroke-width:0.0608;" d="M23.868,23.868l-2.538,2.737&#10;&#9;c0,0-0.05,0.05-0.017,0.083c0.033,0.033,0.083-0.017,0.083-0.017l2.737-2.538 M22.899,24.603c-0.484,0.18-0.625,0.582-1.066,0.72&#10;&#9;c-0.441,0.138-0.585,0.471-0.728,0.594c-0.143,0.123-0.289,0.051-0.292,0.109c-0.003,0.058,0.171,0.111,0.392-0.021&#10;&#9;s0.217-0.34,0.754-0.513c0.537-0.173,0.553-0.478,1.053-0.613"/>
<path style="fill:#BF360C;" d="M24.236,25.336c0.025,0.495,0.306,0.715,0.251,1.166&#10;&#9;c0.121-0.357-0.171-0.634-0.154-1.161 M23.914,24.041l1.066,2.33l-0.894-2.401"/>
<path style="fill:#BF360C;" d="M23.707,25.324c-0.167,0.467,0.009,0.777-0.215,1.173&#10;&#9;c0.249-0.284,0.085-0.651,0.302-1.132 M23.904,24.005l0.094,2.56l0.094-2.561"/>
<path style="fill:#BF360C;" d="M23.222,25.111c-0.333,0.368-0.289,0.722-0.648,1.002&#10;&#9;c0.338-0.167,0.327-0.569,0.712-0.93 M23.91,23.968l-0.893,2.401l1.066-2.33"/>
<path style="fill:#BF360C;" d="M22.856,24.729c-0.448,0.213-0.543,0.556-0.982,0.678&#10;&#9;c0.376-0.025,0.52-0.4,1.014-0.587 M23.929,23.936l-1.744,1.877l1.877-1.744"/>
<path style="fill:#FFC107;stroke:#BF360C;stroke-width:0.0608;" d="M23.928,23.827l-3.392,1.557&#10;&#9;c0,0-0.065,0.027-0.047,0.07c0.018,0.043,0.083,0.016,0.083,0.016l3.5-1.298 M22.752,24.136c-0.516-0.019-0.8,0.298-1.26,0.257&#10;&#9;c-0.461-0.041-0.721,0.212-0.9,0.27c-0.179,0.059-0.286-0.063-0.312-0.011c-0.025,0.053,0.116,0.168,0.371,0.13&#10;&#9;c0.255-0.038,0.33-0.231,0.893-0.185c0.563,0.045,0.694-0.23,1.207-0.163"/>
<path style="fill:#FFC107;stroke:#BF360C;stroke-width:0.0608;" d="M24,23.813l-3.73,0.14c0,0-0.07,0-0.07,0.047&#10;&#9;c0,0.047,0.07,0.047,0.07,0.047l3.73,0.14 M22.795,23.648c-0.469-0.215-0.853-0.03-1.263-0.245c-0.41-0.215-0.747-0.08-0.935-0.095&#10;&#9;c-0.188-0.014-0.24-0.168-0.284-0.129c-0.044,0.039,0.043,0.2,0.293,0.262c0.25,0.063,0.394-0.087,0.896,0.17&#10;&#9;c0.502,0.257,0.729,0.053,1.178,0.311"/>
<path style="fill:#FFC107;stroke:#BF360C;stroke-width:0.0608;" d="M24.072,23.827l-3.5-1.298&#10;&#9;c0,0-0.065-0.027-0.083,0.016c-0.018,0.043,0.047,0.07,0.047,0.07l3.392,1.557 M23.021,23.213c-0.351-0.378-0.776-0.354-1.073-0.71&#10;&#9;c-0.297-0.355-0.66-0.36-0.828-0.445c-0.168-0.085-0.158-0.247-0.213-0.228c-0.055,0.019-0.037,0.201,0.17,0.354&#10;&#9;c0.207,0.154,0.397,0.07,0.763,0.5c0.366,0.43,0.653,0.328,0.969,0.738"/>
<path style="fill:#FFC107;stroke:#BF360C;stroke-width:0.0608;" d="M24.132,23.868l-2.737-2.538&#10;&#9;c0,0-0.05-0.05-0.083-0.017c-0.033,0.033,0.017,0.083,0.017,0.083l2.538,2.737 M23.397,22.899c-0.18-0.484-0.582-0.625-0.72-1.066&#10;&#9;c-0.138-0.441-0.471-0.585-0.594-0.728c-0.123-0.143-0.051-0.289-0.109-0.292c-0.059-0.003-0.111,0.171,0.021,0.392&#10;&#9;c0.132,0.221,0.34,0.217,0.513,0.754c0.173,0.537,0.478,0.553,0.613,1.053"/>
<path style="fill:#BF360C;" d="M22.664,24.236c-0.495,0.025-0.715,0.306-1.166,0.251&#10;&#9;c0.357,0.121,0.634-0.171,1.161-0.154 M23.959,23.914l-2.33,1.066l2.401-0.894"/>
<path style="fill:#BF360C;" d="M22.676,23.707c-0.467-0.167-0.777,0.009-1.173-0.215&#10;&#9;c0.284,0.249,0.651,0.085,1.132,0.302 M23.995,23.905l-2.56,0.094l2.561,0.094"/>
<path style="fill:#BF360C;" d="M22.889,23.222c-0.368-0.333-0.722-0.289-1.002-0.647&#10;&#9;c0.167,0.338,0.569,0.327,0.93,0.712 M24.032,23.91l-2.401-0.893l2.33,1.066"/>
<path style="fill:#BF360C;" d="M23.271,22.856c-0.212-0.448-0.556-0.543-0.678-0.982&#10;&#9;c0.025,0.376,0.4,0.52,0.587,1.014 M24.064,23.929l-1.877-1.744l1.744,1.877"/>
<path style="fill:#FFC107;stroke:#BF360C;stroke-width:0.0608;" d="M24.173,23.928l-1.557-3.392&#10;&#9;c0,0-0.027-0.065-0.07-0.047c-0.043,0.018-0.016,0.083-0.016,0.083l1.298,3.5 M23.864,22.752c0.019-0.516-0.298-0.8-0.257-1.26&#10;&#9;c0.041-0.461-0.212-0.721-0.27-0.9c-0.059-0.179,0.063-0.286,0.011-0.312c-0.053-0.025-0.168,0.116-0.13,0.371&#10;&#9;c0.038,0.255,0.231,0.33,0.185,0.893c-0.045,0.563,0.23,0.694,0.163,1.207"/>
<path style="fill:#FFC107;stroke:#BF360C;stroke-width:0.0608;" d="M24.187,24l-0.14-3.73c0,0,0-0.07-0.047-0.07&#10;&#9;c-0.047,0-0.047,0.07-0.047,0.07L23.813,24 M24.352,22.795c0.215-0.469,0.03-0.853,0.245-1.263c0.215-0.41,0.081-0.747,0.095-0.935&#10;&#9;c0.014-0.188,0.168-0.24,0.129-0.284c-0.039-0.044-0.2,0.043-0.262,0.293c-0.063,0.25,0.087,0.394-0.17,0.896&#10;&#9;c-0.257,0.502-0.053,0.729-0.311,1.178"/>
<path style="fill:#FFC107;stroke:#BF360C;stroke-width:0.0608;" d="M24.173,24.072l1.298-3.5&#10;&#9;c0,0,0.027-0.065-0.016-0.083c-0.043-0.018-0.07,0.047-0.07,0.047l-1.557,3.392 M24.787,23.021c0.378-0.351,0.354-0.776,0.71-1.073&#10;&#9;c0.355-0.297,0.36-0.66,0.445-0.828c0.085-0.168,0.247-0.158,0.228-0.213c-0.019-0.055-0.201-0.037-0.354,0.17&#10;&#9;c-0.154,0.207-0.07,0.397-0.5,0.763c-0.43,0.366-0.328,0.653-0.738,0.969"/>
<path style="fill:#FFC107;stroke:#BF360C;stroke-width:0.0608;" d="M24.132,24.132l2.538-2.737&#10;&#9;c0,0,0.05-0.05,0.017-0.083c-0.033-0.033-0.083,0.017-0.083,0.017l-2.737,2.538 M25.101,23.397c0.484-0.18,0.625-0.582,1.066-0.72&#10;&#9;c0.441-0.138,0.585-0.472,0.728-0.594c0.143-0.123,0.289-0.051,0.292-0.109c0.003-0.058-0.171-0.111-0.392,0.021&#10;&#9;c-0.221,0.132-0.217,0.34-0.754,0.513c-0.537,0.173-0.553,0.478-1.053,0.613"/>
<path style="fill:#BF360C;" d="M23.764,22.664c-0.025-0.495-0.306-0.715-0.251-1.166&#10;&#9;c-0.121,0.357,0.171,0.634,0.154,1.161 M24.086,23.959l-1.066-2.33l0.894,2.401"/>
<path style="fill:#BF360C;" d="M24.293,22.676c0.167-0.467-0.009-0.777,0.215-1.173&#10;&#9;c-0.249,0.283-0.085,0.651-0.302,1.132 M24.096,23.995l-0.094-2.561l-0.094,2.561"/>
<path style="fill:#BF360C;" d="M24.778,22.889c0.333-0.368,0.289-0.722,0.648-1.002&#10;&#9;c-0.338,0.167-0.327,0.569-0.712,0.93 M24.09,24.032l0.893-2.401l-1.066,2.33"/>
<path style="fill:#BF360C;" d="M25.144,23.271c0.448-0.212,0.543-0.556,0.982-0.678&#10;&#9;c-0.376,0.025-0.52,0.4-1.014,0.587 M24.071,24.064l1.744-1.877l-1.877,1.744"/>
<path style="fill:#FFC107;stroke:#BF360C;stroke-width:0.0608;" d="M24.072,24.173l3.392-1.557&#10;&#9;c0,0,0.065-0.027,0.047-0.07c-0.018-0.043-0.083-0.016-0.083-0.016l-3.5,1.298 M25.248,23.864c0.516,0.019,0.8-0.298,1.26-0.257&#10;&#9;c0.461,0.041,0.721-0.212,0.9-0.27c0.179-0.059,0.286,0.063,0.312,0.011c0.025-0.053-0.116-0.168-0.371-0.13&#10;&#9;c-0.255,0.038-0.33,0.231-0.893,0.185c-0.563-0.045-0.694,0.23-1.207,0.163"/>
<path style="fill:#FFC107;stroke:#BF360C;stroke-width:0.0608;" d="M24,24.187l3.73-0.14c0,0,0.07,0,0.07-0.047&#10;&#9;c0-0.047-0.07-0.047-0.07-0.047L24,23.813 M25.205,24.352c0.469,0.215,0.853,0.03,1.263,0.245c0.41,0.215,0.747,0.08,0.935,0.095&#10;&#9;c0.188,0.014,0.24,0.168,0.284,0.129c0.044-0.039-0.043-0.2-0.293-0.262c-0.25-0.063-0.394,0.087-0.896-0.17&#10;&#9;c-0.502-0.257-0.729-0.053-1.178-0.311"/>
<path style="fill:#FFC107;stroke:#BF360C;stroke-width:0.0608;" d="M23.928,24.173l3.5,1.298&#10;&#9;c0,0,0.065,0.027,0.083-0.016c0.018-0.043-0.047-0.07-0.047-0.07l-3.392-1.557 M24.979,24.787c0.351,0.378,0.776,0.354,1.073,0.71&#10;&#9;c0.297,0.355,0.66,0.36,0.828,0.445c0.168,0.085,0.158,0.247,0.213,0.228c0.055-0.019,0.037-0.201-0.17-0.354&#10;&#9;c-0.207-0.154-0.397-0.07-0.763-0.5c-0.366-0.43-0.653-0.328-0.969-0.738"/>
<path style="fill:#FFC107;stroke:#BF360C;stroke-width:0.0608;" d="M23.868,24.132l2.737,2.538&#10;&#9;c0,0,0.05,0.05,0.083,0.017c0.033-0.033-0.017-0.083-0.017-0.083l-2.538-2.737 M24.603,25.101c0.18,0.484,0.582,0.625,0.72,1.066&#10;&#9;c0.138,0.441,0.471,0.585,0.594,0.728c0.123,0.143,0.051,0.289,0.109,0.292c0.058,0.003,0.111-0.172-0.021-0.392&#10;&#9;c-0.132-0.221-0.34-0.217-0.513-0.754c-0.173-0.537-0.478-0.553-0.613-1.053"/>
<path style="fill:#BF360C;" d="M25.336,23.764c0.495-0.025,0.715-0.306,1.166-0.251&#10;&#9;c-0.357-0.121-0.634,0.171-1.161,0.154 M24.041,24.086l2.33-1.066l-2.401,0.893"/>
<path style="fill:#BF360C;" d="M25.324,24.293c0.467,0.167,0.777-0.009,1.173,0.215&#10;&#9;c-0.284-0.249-0.651-0.085-1.132-0.302 M24.005,24.096l2.56-0.094l-2.561-0.094"/>
<path style="fill:#BF360C;" d="M25.111,24.778c0.368,0.333,0.722,0.289,1.002,0.648&#10;&#9;c-0.167-0.338-0.569-0.327-0.93-0.712 M23.968,24.09l2.401,0.893l-2.33-1.066"/>
<path style="fill:#BF360C;" d="M24.729,25.144c0.213,0.448,0.556,0.543,0.678,0.982&#10;&#9;c-0.025-0.376-0.4-0.52-0.587-1.014 M23.936,24.071l1.877,1.744l-1.744-1.877"/>
<circle style="fill:#FFC107;stroke:#BF360C;stroke-width:0.0821;" cx="24" cy="24" r="1.52"/>
<path style="fill:#843511;" d="M24.518,23.675c-0.104,0-0.203,0.045-0.262,0.139&#10;&#9;c0.117,0.105,0.375,0.117,0.551-0.012C24.731,23.72,24.622,23.675,24.518,23.675L24.518,23.675z M24.516,23.699&#10;&#9;c0.101-0.002,0.195,0.045,0.209,0.091c-0.117,0.129-0.304,0.117-0.421,0.024C24.356,23.732,24.438,23.7,24.516,23.699L24.516,23.699&#10;&#9;z"/>
<path style="fill:#BF360C;" d="M24.538,23.603c-0.152,0-0.187,0.035-0.257,0.094&#10;&#9;c-0.07,0.058-0.105,0.047-0.117,0.058c-0.012,0.012,0,0.047,0.023,0.035c0.023-0.012,0.07-0.035,0.14-0.093&#10;&#9;c0.07-0.059,0.14-0.058,0.21-0.058c0.21,0,0.327,0.175,0.351,0.164C24.912,23.79,24.772,23.603,24.538,23.603L24.538,23.603z"/>
<path style="fill:#BF360C;" d="M24.959,23.673c-0.269-0.234-0.608-0.269-0.795-0.094&#10;&#9;c-0.046,0.061-0.075,0.127-0.087,0.195c-0.024,0.133,0.018,0.277,0.122,0.424c-0.012,0-0.035,0.012-0.047,0.023&#10;&#9;c-0.093-0.178-0.126-0.36-0.095-0.533c0.008-0.045,0.02-0.09,0.037-0.133C24.351,23.345,24.701,23.322,24.959,23.673L24.959,23.673z&#10;&#9;"/>
<circle style="fill:#BF360C;" cx="24.514" cy="23.789" r="0.105"/>
<path style="fill:#BF360C;" d="M24.819,23.86c-0.199,0.152-0.398,0.14-0.514,0.07&#10;&#9;c-0.117-0.07-0.117-0.094-0.094-0.094c0.023,0,0.047,0.023,0.14,0.07C24.444,23.954,24.585,23.954,24.819,23.86L24.819,23.86z"/>
<path style="fill:#BF360C;" d="M23.767,24.21c-0.05,0.009-0.085,0.053-0.085,0.104c0,0.058,0.048,0.104,0.106,0.104&#10;&#9;c0.034,0,0.066-0.016,0.085-0.044c0.04,0.03,0.097,0.034,0.127,0.034c0.005,0,0.011,0,0.014,0c0.03-0.001,0.086-0.004,0.127-0.034&#10;&#9;c0.02,0.028,0.051,0.044,0.085,0.044c0.058,0,0.106-0.046,0.106-0.104c0-0.051-0.036-0.095-0.085-0.104&#10;&#9;c0.028,0.01,0.046,0.037,0.046,0.067c0,0.039-0.031,0.07-0.07,0.07c-0.037,0-0.068-0.03-0.07-0.067&#10;&#9;c-0.011,0.023-0.057,0.091-0.145,0.094c-0.089-0.003-0.134-0.071-0.145-0.094c-0.002,0.037-0.033,0.067-0.07,0.067&#10;&#9;c-0.039,0-0.07-0.031-0.07-0.07C23.721,24.247,23.739,24.22,23.767,24.21L23.767,24.21z"/>
<path style="fill:#BF360C;" d="M23.882,24.521c-0.117,0-0.163,0.106-0.268,0.176c0.058-0.023,0.104-0.069,0.186-0.116&#10;&#9;c0.082-0.047,0.152,0.01,0.198,0.01H24c0.047,0,0.116-0.057,0.198-0.01c0.082,0.047,0.13,0.093,0.188,0.116&#10;&#9;c-0.105-0.07-0.153-0.176-0.27-0.176c-0.023,0-0.07,0.013-0.116,0.036h-0.002C23.951,24.534,23.905,24.521,23.882,24.521z"/>
<path style="fill:#BF360C;" d="M23.842,24.66c-0.046,0.002-0.107,0.011-0.195,0.038c0.211-0.047,0.257,0.024,0.351,0.024H24&#10;&#9;c0.094,0,0.14-0.071,0.351-0.024c-0.234-0.07-0.28-0.024-0.351-0.024h-0.002C23.954,24.674,23.919,24.657,23.842,24.66L23.842,24.66&#10;&#9;z"/>
<path style="fill:#BF360C;" d="M23.658,24.696c-0.014,0-0.028,0-0.044,0.002c0.246,0.023,0.128,0.164,0.385,0.164H24&#10;&#9;c0.257,0,0.141-0.141,0.386-0.164c-0.257-0.023-0.176,0.128-0.386,0.128h-0.002C23.801,24.826,23.862,24.693,23.658,24.696&#10;&#9;L23.658,24.696z"/>
<path style="fill:#BF360C;" d="M24.211,25.076c0-0.116-0.094-0.21-0.21-0.21c-0.116,0-0.21,0.094-0.21,0.21&#10;&#9;c0.023-0.097,0.11-0.166,0.21-0.166C24.101,24.909,24.188,24.978,24.211,25.076L24.211,25.076L24.211,25.076z"/>
<path style="fill:#BF360C;" d="M23.055,23.673c0.269-0.234,0.608-0.269,0.795-0.094&#10;&#9;c0.046,0.061,0.075,0.127,0.087,0.195c0.024,0.133-0.018,0.277-0.122,0.424c0.012,0,0.035,0.012,0.047,0.023&#10;&#9;c0.093-0.178,0.126-0.36,0.095-0.533c-0.008-0.045-0.02-0.09-0.037-0.133C23.663,23.345,23.312,23.322,23.055,23.673L23.055,23.673z&#10;&#9;"/>
<path style="fill:#BF360C;" d="M23.476,23.603c0.152,0,0.187,0.035,0.257,0.094&#10;&#9;c0.07,0.058,0.105,0.047,0.117,0.058c0.012,0.012,0,0.047-0.023,0.035c-0.023-0.012-0.07-0.035-0.14-0.093&#10;&#9;c-0.07-0.059-0.14-0.058-0.21-0.058c-0.21,0-0.327,0.175-0.351,0.164C23.102,23.79,23.242,23.603,23.476,23.603L23.476,23.603z"/>
<path style="fill:#843511;" d="M23.469,23.675c-0.104,0-0.203,0.045-0.262,0.139&#10;&#9;c0.117,0.105,0.375,0.117,0.551-0.012C23.682,23.72,23.572,23.675,23.469,23.675L23.469,23.675z M23.467,23.699&#10;&#9;c0.101-0.002,0.195,0.045,0.209,0.091c-0.117,0.129-0.304,0.117-0.421,0.024C23.306,23.732,23.388,23.7,23.467,23.699L23.467,23.699&#10;&#9;z"/>
<circle style="fill:#BF360C;" cx="23.482" cy="23.789" r="0.105"/>
<path style="fill:#BF360C;" d="M23.195,23.86c0.199,0.152,0.398,0.14,0.514,0.07&#10;&#9;c0.117-0.07,0.117-0.094,0.094-0.094c-0.023,0-0.047,0.023-0.14,0.07C23.569,23.954,23.429,23.954,23.195,23.86L23.195,23.86z"/>
</svg>