<svg version="1.1" xmlns="http://www.w3.org/2000/svg" xmlns:xlink="http://www.w3.org/1999/xlink" x="0px" y="0px" width="48" height="48" viewBox="0 0 48 48" enable-background="new 0 0 48 48" xml:space="preserve">
<rect x="2" y="9" fill="#3F51B5" width="44" height="30"/>
<rect x="16" y="9" fill="#FFC107" width="16" height="30"/>
<path d="M29.888,20.008c-1.111,0.179-2.257,0.783-3.041,1.62c-0.09,0.116,0.484-0.126,0.537-0.134&#10;&#9;c0.43-0.134-0.128,0.626-0.159,0.823c-0.44,1.455-0.823,2.86-0.965,4.533c0,0.114-0.018,0.198-0.07,0.204l-1.473-0.226v-5.386&#10;&#9;c0.347-0.009,0.885,0.085,1.193,0.19C24.918,20.614,24.455,19.28,24,18c-0.455,1.28-0.918,2.614-1.91,3.634&#10;&#9;c0.309-0.105,0.846-0.199,1.193-0.19v5.386l-1.473,0.226c-0.053-0.006-0.07-0.09-0.07-0.204c-0.142-1.673-0.524-3.078-0.965-4.533&#10;&#9;c-0.031-0.197-0.591-0.957-0.159-0.823c0.052,0.008,0.627,0.25,0.537,0.134c-0.784-0.837-1.93-1.441-3.041-1.62&#10;&#9;c-0.099-0.025-0.157,0.025-0.069,0.143c1.477,2.347,2.711,5.116,2.701,8.401c0.573,0,1.963-0.351,2.539-0.351V32h0.707h0.02h0.707&#10;&#9;v-3.799c0.575,0,1.966,0.351,2.539,0.351c-0.01-3.285,1.225-6.055,2.701-8.401C30.045,20.033,29.986,19.982,29.888,20.008z"/>
</svg>