<svg version="1.1" xmlns="http://www.w3.org/2000/svg" xmlns:xlink="http://www.w3.org/1999/xlink" x="0px" y="0px" width="48" height="48" viewBox="0 0 48 48" enable-background="new 0 0 48 48" xml:space="preserve">
<rect x="2" y="30" fill="#F44336" width="44" height="9"/>
<rect x="2" y="18" fill="#ECEFF1" width="44" height="12"/>
<rect x="2" y="9" fill="#4CAF50" width="44" height="9"/>
<g>
	<path fill="#D32F2F" d="M26.104,19.881c0,0,3.733,2.921,0.988,7.119C29.677,25.419,29.901,21.074,26.104,19.881L26.104,19.881z"/>
	<path fill="#D32F2F" d="M24,19.885c-0.594,0.671-1.616,0.005-1.264-0.726C23.35,20.261,24,19.372,24,19.372s0.65,0.889,1.264-0.213&#10;&#9;&#9;C25.617,19.89,24.594,20.556,24,19.885L24,19.885z"/>
	<path fill="#D32F2F" d="M24,28.982l-0.428-0.558c0,0-1.006,0.334-2.329-0.127c1.084,0,1.692-0.192,1.914-0.306&#10;&#9;&#9;c0,0-2.457-1.325-2.409-4.021c0.144-2.729,1.596-3.56,1.596-3.56s-2.585,3.766,1.212,6.914l-0.166-3.895V20.57&#10;&#9;&#9;C23.605,20.52,24,20.065,24,20.065s0.395,0.454,0.611,0.505v2.861l-0.169,3.895c3.799-3.148,1.215-6.914,1.215-6.914&#10;&#9;&#9;s1.453,0.828,1.596,3.56c0.047,2.695-2.41,4.021-2.41,4.021c0.223,0.111,0.829,0.306,1.914,0.306&#10;&#9;&#9;c-1.323,0.461-2.329,0.124-2.329,0.124L24,28.982L24,28.982z"/>
	<path fill="#D32F2F" d="M21.898,19.881c0,0-3.735,2.921-0.989,7.119C18.323,25.419,18.099,21.074,21.898,19.881L21.898,19.881z"/>
</g>
</svg>