<svg version="1.1" id="Layer_1" xmlns="http://www.w3.org/2000/svg" xmlns:xlink="http://www.w3.org/1999/xlink" x="0px" y="0px" viewBox="0 0 48 48" style="enable-background:new 0 0 48 48;" xml:space="preserve" width="48" height="48">
<rect x="2" y="9" style="fill:#D50000;" width="44" height="30"/>
<path style="fill:#1B5E20;" d="M21.693,28.714l1.09-3.355l-2.853-2.073h3.527l1.091-3.357l1.091,3.357h3.527l-2.853,2.073&#10;&#9;l1.09,3.355l-2.854-2.073L21.693,28.714z M25.155,26.199l0.885,0.643l-0.338-1.041L25.155,26.199z M23.391,25.801l-0.338,1.041&#10;&#9;l0.885-0.643L23.391,25.801z M23.623,25.086l0.923,0.671l0.923-0.671l-0.352-1.084h-1.142L23.623,25.086z M22.131,24.002&#10;&#9;l0.884,0.642l0.209-0.642H22.131z M25.87,24.002l0.209,0.642l0.884-0.642H25.87z M24.208,23.286h0.677l-0.339-1.042L24.208,23.286z"/>
</svg>