<?xml version="1.0" encoding="utf-8"?>
<!-- Generator: Adobe Illustrator 22.0.1, SVG Export Plug-In . SVG Version: 6.00 Build 0)  -->
<svg version="1.1" id="Слой_1" xmlns="http://www.w3.org/2000/svg" xmlns:xlink="http://www.w3.org/1999/xlink" x="0px" y="0px"
	 viewBox="0 0 612 409" style="enable-background:new 0 0 612 409;" xml:space="preserve">
<style type="text/css">
	.st0{fill:#45505F;}
</style>
<path id="Forma_1" class="st0" d="M306.8,245.3h0.1c4.6,0,9-1.3,12.9-3.8l1-0.6c0.2-0.1,0.4-0.3,0.7-0.4l11.7-9.6L611.4,1.3
	c-0.6-0.8-1.6-1.3-2.6-1.3H3.2c-0.7,0-1.4,0.3-2,0.7l291.1,239.8C296.5,243.7,301.6,245.4,306.8,245.3z M0,32.5v340.1l208.6-168.4
	L0,32.5z M403.7,205.4L612,372.7V33.6L403.7,205.4z M337.4,260c-18,14.1-43.2,14.1-61.2,0.1l-47.8-39.4L0,405.2v0.6
	c0,1.8,1.5,3.2,3.3,3.2h605.5c1.8,0,3.2-1.5,3.2-3.3v-0.5L383.7,221.9L337.4,260z"/>
</svg>
