<svg xmlns="http://www.w3.org/2000/svg" width="612" height="409" viewBox="0 0 612 409">
  <metadata><?xpacket begin="﻿" id="W5M0MpCehiHzreSzNTczkc9d"?>
<x:xmpmeta xmlns:x="adobe:ns:meta/" x:xmptk="Adobe XMP Core 5.6-c140 79.160451, 2017/05/06-01:08:21        ">
   <rdf:RDF xmlns:rdf="http://www.w3.org/1999/02/22-rdf-syntax-ns#">
      <rdf:Description rdf:about=""/>
   </rdf:RDF>
</x:xmpmeta>
                                                                                                    
                                                                                                    
                                                                                                    
                                                                                                    
                                                                                                    
                                                                                                    
                                                                                                    
                                                                                                    
                                                                                                    
                                                                                                    
                                                                                                    
                                                                                                    
                                                                                                    
                                                                                                    
                                                                                                    
                                                                                                    
                                                                                                    
                                                                                                    
                                                                                                    
                                                                                                    
                           
<?xpacket end="w"?></metadata>
<defs>
    <style>
      .cls-1 {
        fill-rule: evenodd;
      }
    </style>
  </defs>
  <path id="Forma_1" data-name="Forma 1" class="cls-1" d="M306.767,245.287H306.9a23.544,23.544,0,0,0,12.866-3.775l1-.642c0.217-.141.446-0.272,0.675-0.424l11.658-9.638L611.358,1.337A3.273,3.273,0,0,0,608.756,0H3.233a3.144,3.144,0,0,0-2,.729L292.355,240.522A22.821,22.821,0,0,0,306.767,245.287ZM0,32.514V372.657L208.55,204.3ZM403.668,205.441L612,372.744V33.645Zm-66.237,54.607a49.654,49.654,0,0,1-61.164.055L228.5,220.735,0,405.172v0.587A3.308,3.308,0,0,0,3.276,409H608.767A3.294,3.294,0,0,0,612,405.748V405.2L383.693,221.888Z"/>
</svg>
