<?xml version="1.0" encoding="utf-8"?>
<!-- Generator: Adobe Illustrator 22.0.1, SVG Export Plug-In . SVG Version: 6.00 Build 0)  -->
<svg version="1.1" id="Слой_1" xmlns="http://www.w3.org/2000/svg" xmlns:xlink="http://www.w3.org/1999/xlink" x="0px" y="0px"
	 viewBox="0 0 823.9 165.8" style="enable-background:new 0 0 823.9 165.8;" xml:space="preserve">
<style type="text/css">
	.st0{clip-path:url(#SVGID_2_);}
	.st1{clip-path:url(#SVGID_4_);fill:#404A5E;}
	.st2{clip-path:url(#SVGID_6_);}
	.st3{clip-path:url(#SVGID_8_);fill:#FFFFFF;}
	.st4{clip-path:url(#SVGID_10_);}
	.st5{clip-path:url(#SVGID_12_);fill:#404A5E;}
	.st6{clip-path:url(#SVGID_14_);}
	.st7{clip-path:url(#SVGID_16_);fill:#FFFFFF;}
</style>
<g id="White_Full_1_">
	<g>
		<defs>
			<rect id="SVGID_5_" y="-1" width="823.9" height="168.1"/>
		</defs>
		<clipPath id="SVGID_2_">
			<use xlink:href="#SVGID_5_"  style="overflow:visible;"/>
		</clipPath>
		<g class="st0">
			<defs>
				<rect id="SVGID_7_" y="-1" width="823.9" height="168.1"/>
			</defs>
			<clipPath id="SVGID_4_">
				<use xlink:href="#SVGID_7_"  style="overflow:visible;"/>
			</clipPath>
			<path style="clip-path:url(#SVGID_4_);fill:#FFFFFF;" d="M597.9,52.7l2.3-13.4H628l-6.1,34.3H609l0.2-6.1
				c-5.4,5.1-12,7.7-19.9,7.7c-7.9,0-14.1-2.3-18.5-6.8c-4.4-4.5-6.7-10.4-6.7-17.6l0.1-3.9l0.6-3.4c1.7-9.8,5.9-17.8,12.5-24
				c3.4-3.2,7.2-5.6,11.5-7.3c4.3-1.6,9.1-2.5,14.3-2.5c2.8,0,5.2,0.2,7.2,0.6c2,0.4,4.1,1.1,6.3,2.1c3.8,1.7,6.7,4.3,8.8,7.7
				c2.1,3.4,3.1,7.5,3.1,12.3v0.3h-19.3c-0.6-5.2-3.7-7.8-9.1-7.8c-8.9,0-14.1,7.9-15.6,23.6c0,7.6,3.5,11.5,10.6,11.5
				c2.2,0,4.5-0.7,6.8-2c2.4-1.4,4-3.1,4.9-5.2H597.9"/>
			<polygon style="clip-path:url(#SVGID_4_);fill:#FFFFFF;" points="503.5,11.4 522.7,11.4 538.8,45.1 540.5,31.4 544,11.4 
				563.3,11.4 552.4,73.3 533.4,73.3 517.3,39.6 515.6,53.7 512.1,73.3 492.6,73.3 			"/>
			<polygon style="clip-path:url(#SVGID_4_);fill:#FFFFFF;" points="471.1,11.4 491.4,11.4 480.4,73.3 460.2,73.3 			"/>
			<polygon style="clip-path:url(#SVGID_4_);fill:#FFFFFF;" points="397.6,11.4 420.5,11.4 427.4,32.4 441.8,11.4 464.1,11.4 
				434.2,50.5 430.2,73.3 409.8,73.3 413.7,50.8 			"/>
			<polygon style="clip-path:url(#SVGID_4_);fill:#FFFFFF;" points="362.4,11.4 382.7,11.4 374.4,58.8 402.2,58.8 399.7,73.3 
				351.5,73.3 			"/>
			<polygon style="clip-path:url(#SVGID_4_);fill:#FFFFFF;" points="304.9,11.4 353.2,11.4 350.6,25.9 322.7,25.9 320.8,36.9 
				342.9,36.9 340.4,51.4 318.2,51.4 314.4,73.3 294,73.3 			"/>
			<path style="clip-path:url(#SVGID_4_);fill:#FFFFFF;" d="M366.7,130.4h12.8l-2.5-22.2L366.7,130.4z M370,89.5h20.7l11.3,61.9
				h-20.2l-1-8.2h-20.3l-3.7,8.2H337L370,89.5"/>
			<path style="clip-path:url(#SVGID_4_);fill:#FFFFFF;" d="M454.5,113.2c0-2.2-0.2-3.8-0.6-5c-0.4-1.2-1.1-2.2-2.1-3
				c-2.2-1.4-4.4-2.1-6.6-2.1c-3.8,0-7,1.7-9.5,5.1c-2.5,3.4-4.2,7.7-5.1,12.8l-0.7,6.4c0,7.2,3.3,10.7,9.8,10.7
				c5.8,0,10-3.5,12.4-10.6h19.5c-1.4,4.9-3.6,9.3-6.8,13.2c-3.1,3.9-7.1,7-11.9,9.3c-2.1,1-4.5,1.8-7.2,2.4
				c-1.2,0.2-2.5,0.4-3.9,0.6c-1.4,0.2-2.8,0.3-4.2,0.3c-8.8,0-15.6-2.2-20.5-6.5c-2.4-2.1-4.2-4.8-5.6-7.9
				c-1.3-3.3-1.9-6.8-1.9-10.5l0.1-3.8l0.6-3.5c1.3-7.5,3.9-13.7,7.8-18.7c3.9-4.9,8.5-8.6,13.7-10.9c5.2-2.4,10.4-3.5,15.5-3.5
				c3.6,0,6.8,0.3,9.5,0.9c2.7,0.6,5.3,1.7,7.6,3.2c4,2.5,6.5,5.6,7.7,9.2c0.6,1.8,1.1,3.7,1.3,5.6l0.3,6.5H454.5"/>
			<path style="clip-path:url(#SVGID_4_);fill:#FFFFFF;" d="M500.3,130.4h12.8l-2.5-22.2L500.3,130.4z M503.6,89.5h20.7l11.3,61.9
				h-20.2l-1-8.2H494l-3.7,8.2h-19.8L503.6,89.5"/>
			<path style="clip-path:url(#SVGID_4_);fill:#FFFFFF;" d="M570.7,104.1l-5.8,32.9h4.6c9.6,0,15.4-5.7,17.4-17.2
				c0.3-2.2,0.5-4.2,0.5-5.9c0-3.5-1-6.1-3-7.6c-2-1.5-5.4-2.3-10.1-2.3H570.7z M552.9,89.5h26.7c2.9,0,5.6,0.2,8.2,0.6
				c2.5,0.4,4.8,0.9,6.8,1.7c4.1,1.4,7.4,3.8,9.8,7.2c2.4,3.4,3.6,7.7,3.6,12.8l-0.3,4.1l-0.4,3.3c-1.4,7.6-3.9,13.8-7.5,18.8
				c-3.3,4.7-7.7,8.1-13.2,10.3c-5.5,2.2-11.5,3.3-18.1,3.3H542L552.9,89.5"/>
			<polygon style="clip-path:url(#SVGID_4_);fill:#FFFFFF;" points="620.6,89.5 671.1,89.5 668.5,104.1 638.4,104.1 636.7,112.9 
				662.4,112.9 659.7,127.4 634.2,127.4 632.5,137 663.9,137 661.4,151.5 609.7,151.5 			"/>
			<path style="clip-path:url(#SVGID_4_);fill:#FFFFFF;" d="M706.1,89.5l4,38.6l17.8-38.6h24.5l-10.9,61.9h-18.3l3.8-20.6l1.5-7.9
				l3.1-11.3l-18.5,39.8H699l-4.4-39.8l-0.9,8.8c-0.7,7.4-2.4,17.7-5.1,31h-18l10.9-61.9H706.1"/>
			<polygon style="clip-path:url(#SVGID_4_);fill:#FFFFFF;" points="757.4,89.5 780.3,89.5 787.2,110.5 801.6,89.5 823.9,89.5 
				794,128.6 790,151.5 769.6,151.5 773.5,129 			"/>
			<path style="clip-path:url(#SVGID_4_);fill:#FFFFFF;" d="M268.5,22.6c0,0-166.2,73-107,73C254,95.6,266.6,40.7,268.5,22.6"/>
			<path style="clip-path:url(#SVGID_4_);fill:#FFFFFF;" d="M352.2,87.4c0,0-97.6-1.3-164.1,17.6c0,0,121.4-5.2,147.8,10.2
				L352.2,87.4"/>
			<path style="clip-path:url(#SVGID_4_);fill:#FFFFFF;" d="M139.6,108.7C68.1,89.2,290.7-1,290.7-1S63.2,46,0,167.1
				c0,0,251-74.7,310.3-7.8L333,121C305.6,104.2,149,113.1,139.6,108.7"/>
		</g>
	</g>
</g>
</svg>
