<svg xmlns="http://www.w3.org/2000/svg" width="800" height="800" viewBox="0 0 800 800">
  <metadata><?xpacket begin="﻿" id="W5M0MpCehiHzreSzNTczkc9d"?>
<x:xmpmeta xmlns:x="adobe:ns:meta/" x:xmptk="Adobe XMP Core 5.6-c140 79.160451, 2017/05/06-01:08:21        ">
   <rdf:RDF xmlns:rdf="http://www.w3.org/1999/02/22-rdf-syntax-ns#">
      <rdf:Description rdf:about=""/>
   </rdf:RDF>
</x:xmpmeta>
                                                                                                    
                                                                                                    
                                                                                                    
                                                                                                    
                                                                                                    
                                                                                                    
                                                                                                    
                                                                                                    
                                                                                                    
                                                                                                    
                                                                                                    
                                                                                                    
                                                                                                    
                                                                                                    
                                                                                                    
                                                                                                    
                                                                                                    
                                                                                                    
                                                                                                    
                                                                                                    
                           
<?xpacket end="w"?></metadata>
<defs>
    <style>
      .cls-1 {
        fill-rule: evenodd;
      }
    </style>
  </defs>
  <path class="cls-1" d="M592.882,459.69c-1.559-.748-59.9-29.466-70.27-33.2-4.232-1.519-8.766-3-13.589-3-7.878,0-14.5,3.925-19.652,11.634-5.827,8.659-23.47,29.275-28.922,35.434-0.712.812-1.684,1.784-2.266,1.784-0.522,0-9.551-3.717-12.285-4.905-62.586-27.175-110.092-92.529-116.606-103.55a6.449,6.449,0,0,1-.977-2.3c0.229-.838,2.334-2.948,3.42-4.036,3.177-3.143,6.62-7.286,9.951-11.294,1.578-1.9,3.158-3.8,4.709-5.592,4.833-5.621,6.984-9.984,9.478-15.039L357.18,323c6.091-12.1.889-22.305-.792-25.6-1.379-2.758-26.014-62.192-28.634-68.436-6.3-15.067-14.621-22.083-26.186-22.083-1.074,0,0,0-4.5.189-5.48.232-35.321,4.159-48.516,12.473-13.992,8.818-37.663,36.928-37.663,86.361,0,44.491,28.244,86.5,40.371,102.476,0.3,0.4.855,1.221,1.657,2.394,46.44,67.8,104.335,118.041,163.023,141.478,56.5,22.561,83.257,25.169,98.468,25.169h0a153.957,153.957,0,0,0,16.021-.945l2.863-.273c19.519-1.73,62.413-23.948,72.169-51.052,7.686-21.348,9.713-44.672,4.6-53.137C606.56,466.255,600.524,463.358,592.882,459.69ZM407.958,0C191.213,0,14.878,174.945,14.878,389.982A387.005,387.005,0,0,0,68.771,587.2L1.258,786.275a10.391,10.391,0,0,0,12.989,13.237l207.661-65.964A395.86,395.86,0,0,0,407.96,779.92C624.683,779.922,801,605,801,389.982,801,174.945,624.683,0,407.958,0Zm0,698.685a311.488,311.488,0,0,1-171.326-51.056,10.394,10.394,0,0,0-8.85-1.213L123.758,679.47l33.581-99.036a10.393,10.393,0,0,0-1.458-9.473A304.428,304.428,0,0,1,96.6,389.982c0-170.242,139.671-308.746,311.35-308.746,171.657,0,311.314,138.5,311.314,308.746C719.271,560.2,579.617,698.685,407.958,698.685Z"/>
</svg>
