<svg version="1.1" xmlns="http://www.w3.org/2000/svg" xmlns:xlink="http://www.w3.org/1999/xlink" x="0px" y="0px" width="48" height="48" viewBox="0 0 48 48" enable-background="new 0 0 48 48" xml:space="preserve">
<rect x="2" y="9" fill="#C62828" width="44" height="30"/>
<g>
	<path fill="#FFEB3B" d="M29.079,20.82L46,9h-6L28.677,20.25C28.822,20.431,28.955,20.623,29.079,20.82z"/>
	<path fill="#FFEB3B" d="M18,24c0-0.134,0.011-0.266,0.02-0.398L2,22v4l16.02-1.602C18.011,24.266,18,24.134,18,24z"/>
	<path fill="#FFEB3B" d="M28.677,27.75L40,39h6L29.079,27.18C28.955,27.377,28.822,27.568,28.677,27.75z"/>
	<path fill="#FFEB3B" d="M24,30c-0.167,0-0.332-0.012-0.496-0.025L22,39h4l-1.504-9.025C24.332,29.988,24.167,30,24,30z"/>
	<path fill="#FFEB3B" d="M30,24c0,0.134-0.012,0.266-0.021,0.398L46,26v-4l-16.021,1.602C29.988,23.734,30,23.866,30,24z"/>
	<path fill="#FFEB3B" d="M24,18c0.167,0,0.332,0.012,0.496,0.025L26,9h-4l1.504,9.025C23.668,18.012,23.833,18,24,18z"/>
	<path fill="#FFEB3B" d="M19.323,20.25L8,9H2l16.921,11.82C19.045,20.623,19.178,20.432,19.323,20.25z"/>
	<path fill="#FFEB3B" d="M18.921,27.18L2,39h6l11.323-11.25C19.178,27.568,19.045,27.377,18.921,27.18z"/>
	<circle fill="#FFEB3B" cx="24" cy="24" r="4"/>
</g>
</svg>