<svg version="1.1" xmlns="http://www.w3.org/2000/svg" xmlns:xlink="http://www.w3.org/1999/xlink" x="0px" y="0px" width="48" height="48" viewBox="0 0 48 48" enable-background="new 0 0 48 48" xml:space="preserve">
<rect x="2" y="24" fill="#FF3D00" width="44" height="15"/>
<rect x="2" y="9" fill="#3F51B5" width="44" height="15"/>
<polygon fill="#ECEFF1" points="2,9 2,39 25,24.002 "/>
<g>
	<polygon fill="#FFA000" points="4.5,13 4.963,13.988 6,14.146 5.25,14.916 5.428,16 4.5,15.488 3.572,16 3.75,14.916 3,14.146 &#10;&#9;&#9;4.037,13.988 &#9;"/>
	<polygon fill="#FFA000" points="4.787,32.072 5.25,33.061 6.287,33.218 5.537,33.988 5.715,35.072 4.787,34.561 3.859,35.072 &#10;&#9;&#9;4.037,33.988 3.287,33.218 4.324,33.061 &#9;"/>
	<polygon fill="#FFA000" points="19.463,22.324 19.926,23.313 20.963,23.47 20.213,24.24 20.391,25.324 19.463,24.813 &#10;&#9;&#9;18.535,25.324 18.713,24.24 17.963,23.47 19,23.313 &#9;"/>
	<circle fill="#FFA000" cx="10" cy="24" r="3"/>
	<path fill="#FFA000" d="M11,29c0,0.553-0.447,1-1,1l0,0c-0.553,0-1-0.447-1-1l1-1.998V21l-1-2c0-0.553,0.447-1,1-1l0,0&#10;&#9;&#9;c0.553,0,1,0.447,1,1l-1,2v6.002L11,29z"/>
	<path fill="#FFA000" d="M15,23c0.553,0,1,0.447,1,1l0,0c0,0.553-0.447,1-1,1l-1.998-1H7l-2,1c-0.553,0-1-0.447-1-1l0,0&#10;&#9;&#9;c0-0.553,0.447-1,1-1l2,1h6.002L15,23z"/>
	<path fill="#FFA000" d="M5.757,21.173c-0.392-0.392-0.392-1.023,0-1.415l0,0c0.391-0.391,1.023-0.391,1.414,0l0.705,2.12&#10;&#9;&#9;l4.244,4.244l2.121,0.707c0.391,0.391,0.391,1.023,0,1.414l0,0c-0.391,0.391-1.023,0.391-1.414,0l-0.707-2.121l-4.244-4.244&#10;&#9;&#9;L5.757,21.173z"/>
	<path fill="#FFA000" d="M12.828,19.758c0.392-0.392,1.023-0.392,1.415,0l0,0c0.391,0.391,0.391,1.023,0,1.414l-2.12,0.705&#10;&#9;&#9;l-4.244,4.244l-0.707,2.121c-0.391,0.391-1.023,0.391-1.414,0l0,0c-0.391-0.391-0.391-1.023,0-1.414l2.121-0.707l4.244-4.244&#10;&#9;&#9;L12.828,19.758z"/>
</g>
</svg>