<svg version="1.1" id="Layer_1" xmlns="http://www.w3.org/2000/svg" xmlns:xlink="http://www.w3.org/1999/xlink" x="0px" y="0px" viewBox="0 0 48 48" style="enable-background:new 0 0 48 48;" xml:space="preserve" width="48" height="48">
<rect x="2" y="9" style="fill:#DD2C00;" width="44" height="30"/>
<path style="fill:#FFFFFF;" d="M24,16c-4.418,0-8,3.582-8,8s3.582,8,8,8s8-3.582,8-8S28.418,16,24,16z M24,30c-3.314,0-6-2.686-6-6&#10;&#9;s2.686-6,6-6c1.915,0.003,3.713,0.919,4.841,2.467c-0.884-0.813-2.04-1.265-3.241-1.267c-2.651,0-4.8,2.149-4.8,4.8&#10;&#9;c0,2.651,2.149,4.8,4.8,4.8c1.201-0.002,2.357-0.454,3.241-1.266C27.713,29.081,25.915,29.998,24,30z M28.512,26.116l-2.488-0.808&#10;&#9;l-1.537,2.116v-2.616L22,24l2.488-0.808v-2.615l1.537,2.116l2.488-0.808L26.975,24L28.512,26.116z"/>
</svg>